<?xml version="1.0" encoding="UTF-8"?>
<svg xmlns="http://www.w3.org/2000/svg" viewBox="0 0 104.26 92.25" width="104.26" height="92.25">
	<path fill="white" d="M52.13,16.28c6.23-1.57,12.34-1.84,17.75-.83-4.83-5.59-11.01-8.95-17.75-8.95s-12.92,3.36-17.75,8.95c5.41-1.01,11.52-.75,17.75.83Z"/>
	<path fill="white" d="M52.13,76.13c-6.21,1.48-12.26,1.65-17.62.57,4.81,5.5,10.94,8.8,17.62,8.8s12.8-3.3,17.62-8.8c-5.35,1.08-11.41.92-17.62-.57Z"/>
	<path fill="white" d="M34.38,15.45c-7.32,1.37-13.38,5.05-16.77,10.92-3.5,6.06-3.55,13.41-.82,20.65,1.65-5.29,4.81-10.59,9.25-15.35,1.76-6.38,4.66-11.96,8.35-16.23Z"/>
	<path fill="white" d="M77.86,61.6c-1.81,5.92-4.61,11.09-8.11,15.1,7.1-1.44,12.97-5.08,16.28-10.82,3.21-5.56,3.52-12.2,1.45-18.85-1.91,5.07-5.19,10.08-9.61,14.57Z"/>
	<path fill="white" d="M31.94,10.36c6.62-3.82,13.45-6.55,20.19-8.25C42.94-.22,33.93-.61,25.95.88c-5.44,6.3-9.71,14.53-12.31,23.94,5.05-5.42,11.2-10.36,18.3-14.46Z"/>
	<path fill="white" d="M73.24,81.89c-6.92,3.99-14.08,6.81-21.11,8.49,9.16,2.19,18.09,2.43,25.98.84,5.17-5.91,9.3-13.54,11.97-22.27-4.76,4.82-10.41,9.23-16.84,12.95Z"/>
	<path fill="white" d="M87.47,47.03c2.73-7.24,2.68-14.59-.82-20.65-3.39-5.87-9.45-9.56-16.77-10.92,3.69,4.27,6.59,9.85,8.35,16.23,4.43,4.76,7.6,10.06,9.25,15.35Z"/>
	<path fill="white" d="M16.79,47.03c-2.07,6.65-1.76,13.29,1.45,18.85,3.31,5.74,9.18,9.38,16.28,10.82-3.5-4.01-6.31-9.18-8.11-15.1-4.43-4.48-7.7-9.5-9.61-14.57Z"/>
	<path fill="white" d="M52.13,2.1c6.74,1.7,13.57,4.43,20.19,8.25,7.1,4.1,13.25,9.05,18.3,14.46-2.6-9.41-6.87-17.64-12.31-23.94-7.98-1.49-16.98-1.1-26.18,1.22Z"/>
	<path fill="white" d="M52.13,90.38c-7.03-1.68-14.19-4.5-21.11-8.49-6.43-3.71-12.08-8.12-16.84-12.95,2.66,8.74,6.8,16.36,11.97,22.27,7.9,1.6,16.83,1.35,25.98-.84Z"/>
	<path fill="white" d="M93.43,45.94c0,8.17-1.2,15.95-3.35,23.01,6.53-6.61,11.36-14.01,14.18-21.49-2.43-7.81-7.1-15.62-13.64-22.64,1.81,6.55,2.81,13.67,2.81,21.12Z"/>
	<path fill="white" d="M10.83,45.94c0-7.45,1-14.57,2.81-21.12C7.1,31.84,2.43,39.65,0,47.46c2.82,7.48,7.65,14.87,14.18,21.49-2.15-7.06-3.35-14.83-3.35-23Z"/>
</svg>
